<svg id="Icons" version="1.1" viewBox="0 0 32 32" xml:space="preserve" xmlns="http://www.w3.org/2000/svg" enable-background="new 0 0 32 32"><circle cx="16" cy="14" r="2" fill="#bdbdbd" class="fill-000000"></circle><path d="M27 4H5C3.3 4 2 5.3 2 7v14c0 1.7 1.3 3 3 3h4.8l-.9 1.1c-.7.9-.9 2.1-.4 3.2.5 1 1.6 1.7 2.7 1.7h9.5c1.2 0 2.2-.7 2.7-1.7.5-1.1.3-2.3-.4-3.2l-.8-1.1H27c1.7 0 3-1.3 3-3V7c0-1.7-1.3-3-3-3zM16 20c-3.3 0-6-2.7-6-6s2.7-6 6-6 6 2.7 6 6-2.7 6-6 6zm9-10h-2c-.6 0-1-.4-1-1s.4-1 1-1h2c.6 0 1 .4 1 1s-.4 1-1 1z" fill="#bdbdbd" class="fill-000000"></path></svg>