<svg id="Icons" version="1.1" viewBox="0 0 32 32" xml:space="preserve" xmlns="http://www.w3.org/2000/svg" enable-background="new 0 0 32 32"><path d="M10 14.2 2.1 6.3c-.1.2-.1.5-.1.7v14c0 1.7 1.3 3 3 3h4.8l-.9 1.1c-.7.9-.9 2.1-.4 3.2.5 1 1.6 1.7 2.7 1.7h9.5c1.2 0 2.2-.7 2.7-1.7.1-.1.1-.3.2-.4L15.8 20c-3.2-.1-5.7-2.6-5.8-5.8zM30 21V7c0-1.7-1.3-3-3-3H5.4L3.7 2.3c-.4-.4-1-.4-1.4 0s-.4 1 0 1.4l26 26c.2.2.5.3.7.3s.5-.1.7-.3c.4-.4.4-1 0-1.4L25.4 24H27c1.7 0 3-1.3 3-3zm-12.9-5.3c.5-.4.9-1 .9-1.7 0-1.1-.9-2-2-2-.7 0-1.3.4-1.7.9l-2.8-2.8C12.6 8.8 14.2 8 16 8c3.3 0 6 2.7 6 6 0 1.8-.8 3.4-2.1 4.5l-2.8-2.8zM25 10h-2c-.6 0-1-.4-1-1s.4-1 1-1h2c.6 0 1 .4 1 1s-.4 1-1 1z" fill="#bdbdbd" class="fill-000000"></path></svg>