<svg viewBox="0 0 256 256" xmlns="http://www.w3.org/2000/svg"><path fill="none" d="M0 0h256v256H0z"></path><path d="m213.9 210.6-160-176a8 8 0 0 0-11.8 10.8L80 87.1V128a48 48 0 0 0 73.9 40.4l10.9 12a64 64 0 0 1-100.4-45.3 8 8 0 1 0-15.9 1.8 79.9 79.9 0 0 0 71.5 70.7V232a8 8 0 0 0 16 0v-24.4a79.2 79.2 0 0 0 39.6-15.3l26.5 29.1a8 8 0 0 0 5.9 2.6 8.2 8.2 0 0 0 5.4-2.1 7.9 7.9 0 0 0 .5-11.3ZM162.1 129.8a7.9 7.9 0 0 0 5.9 2.6 7.4 7.4 0 0 0 2.9-.5 8 8 0 0 0 5.1-7.5V64a48 48 0 0 0-48-48 47.5 47.5 0 0 0-40.8 22.8 8 8 0 0 0 .8 9.6ZM192.2 161.7a9.3 9.3 0 0 0 2.9.5 7.8 7.8 0 0 0 7.4-5.1 78.7 78.7 0 0 0 5-20.2 8 8 0 1 0-15.9-1.8 60.1 60.1 0 0 1-4 16.2 8.1 8.1 0 0 0 4.6 10.4Z" fill="#bdbdbd" class="fill-000000"></path></svg>