<svg id="Icons" version="1.1" viewBox="0 0 32 32" xml:space="preserve" xmlns="http://www.w3.org/2000/svg" enable-background="new 0 0 32 32"><circle cx="16" cy="14" r="2" fill="#bdbdbd" class="fill-000000"></circle><path d="M23.4 23.4c2.8-2.2 4.6-5.6 4.6-9.4 0-6.6-5.4-12-12-12S4 7.4 4 14c0 3.8 1.8 7.2 4.6 9.4l-1.5 1.3c-.9.8-1.2 2.1-.8 3.3.5 1.2 1.6 2 2.9 2h13.7c1.2 0 2.3-.8 2.8-1.9.5-1.2.1-2.5-.8-3.3l-1.5-1.4zM16 20c-3.3 0-6-2.7-6-6s2.7-6 6-6 6 2.7 6 6-2.7 6-6 6zm6.7-10.3s-.1.1-.2.1c0 0-.1.1-.2.1s-.1 0-.2.1h-.4c-.1 0-.1 0-.2-.1-.1 0-.1-.1-.2-.1l-.1-.1c0-.1-.1-.1-.1-.1 0-.1-.1-.1-.1-.2s0-.1-.1-.2v-.4c0-.1 0-.1.1-.2 0-.1 0-.1.1-.2 0-.1.1-.1.1-.1l.1-.1c.1 0 .1-.1.2-.1s.1 0 .2-.1c.3-.1.7 0 .9.3.3.2.4.4.4.7s-.1.5-.3.7z" fill="#bdbdbd" class="fill-000000"></path></svg>