<svg xmlns="http://www.w3.org/2000/svg" xmlns:xlink="http://www.w3.org/1999/xlink" viewBox="0,0,256,256" width="48px" height="48px" fill-rule="nonzero"><g fill="none" fill-rule="nonzero" stroke="none" stroke-width="1" stroke-linecap="butt" stroke-linejoin="miter" stroke-miterlimit="10" stroke-dasharray="" stroke-dashoffset="0" font-family="none" font-weight="none" font-size="none" text-anchor="none" style="mix-blend-mode: normal"><g transform="scale(5.33333,5.33333)"><path d="M24.522,39.456c0.138,1.85 1.172,5.613 1.464,5.79c0.231,0.139 0.524,0.085 0.784,0.014c2.11,-0.574 4.217,-1.507 5.883,-2.936c5.476,-4.701 10.029,-10.887 11.334,-18.03c1.305,-7.143 -1.212,-15.248 -7.237,-19.202c-3.241,-2.127 -7.159,-2.92 -11.002,-3.318c-3.107,-0.322 -6.332,-0.399 -9.258,0.703c-2.103,0.792 -3.957,2.165 -5.549,3.764c-3.641,3.656 -6,8.593 -6.57,13.75c-0.171,1.543 -0.183,3.13 0.248,4.62c0.356,1.23 1.001,2.353 1.687,3.432c4.162,6.551 10.516,11.522 18.216,11.413z" fill="#0e72ed"></path><path d="M42.949,11.762c-1.753,-3.865 -4.788,-6.909 -8.711,-8.553c-2.265,-0.949 -4.674,-1.453 -7.101,-1.771c-2.542,-0.333 -5.143,-0.543 -7.695,-0.195c-4.863,0.661 -8.74,3.862 -11.475,7.797c-2.642,3.801 -4.419,8.724 -4.193,13.399c0.124,2.574 1.302,4.729 2.729,6.813c1.193,1.741 2.551,3.379 4.085,4.83c3.002,2.838 6.726,4.993 10.843,5.646c0.878,0.139 1.762,0.202 2.65,0.215c0.173,1.531 0.549,3.072 1.026,4.527c0.147,0.446 0.279,1.051 0.746,1.26c0.472,0.211 0.99,0.037 1.458,-0.101c0.616,-0.182 1.223,-0.393 1.817,-0.637c2.227,-0.914 4.002,-2.332 5.722,-3.987c1.642,-1.579 3.154,-3.292 4.499,-5.131c2.633,-3.601 4.615,-7.795 5.248,-12.238c0.572,-4.015 0.029,-8.177 -1.648,-11.874zM40.874,31.58c-1.991,3.726 -4.76,6.992 -7.902,9.8c-1.738,1.554 -3.689,2.621 -5.927,3.282c-0.184,0.054 -0.525,0.219 -0.701,0.192c-0.01,-0.002 -0.01,0.005 -0.008,0.012c-0.008,-0.013 -0.022,-0.035 -0.048,-0.074c-0.132,-0.192 -0.184,-0.488 -0.253,-0.706c-0.246,-0.771 -0.447,-1.556 -0.624,-2.345c-0.169,-0.753 -0.324,-1.515 -0.388,-2.285c-0.004,-0.05 -0.023,-0.089 -0.038,-0.131c-0.046,-0.2 -0.196,-0.371 -0.462,-0.369c-8.088,0.071 -15.1,-5.806 -18.701,-12.723c-1.199,-2.304 -1.219,-4.811 -0.801,-7.325c0.35,-2.108 0.993,-4.174 1.915,-6.102c1.858,-3.885 4.89,-7.603 8.839,-9.484c2.248,-1.071 4.765,-1.32 7.226,-1.244c2.301,0.072 4.627,0.345 6.878,0.831c4.14,0.894 7.935,2.817 10.452,6.311c2.211,3.069 3.353,6.842 3.481,10.605c0.137,4.109 -1.011,8.149 -2.938,11.755z" fill="#010101"></path><path d="M37.562,13.584c-0.699,0.319 -1.249,0.905 -1.781,1.477c-1.188,1.277 -2.706,1.822 -3.928,3.127c0.014,-0.948 0.016,-0.896 -0.013,-1.843c-0.022,-0.742 -0.07,-1.526 -0.475,-2.141c-0.665,-1.009 -2.012,-1.195 -3.195,-1.265c-4.296,-0.255 -5.289,-0.438 -9.58,-0.103c-1.476,0.121 -2.953,0.242 -4.429,0.363c-0.499,0.041 -1.02,0.089 -1.442,0.365c-0.571,0.373 -0.84,1.085 -0.97,1.768c-0.458,2.402 0.361,4.888 0.094,7.321c-0.112,1.015 -0.41,2.051 -0.15,3.036c0.314,1.193 1.406,2.033 2.562,2.366c1.156,0.333 2.382,0.249 3.579,0.161c4.105,-0.3 7.211,-0.6 11.316,-0.9c0.544,-0.04 1.123,-0.092 1.557,-0.432c0.599,-0.468 0.739,-1.322 0.819,-2.091c0.049,-0.472 0.085,-0.946 0.124,-1.419v0.095c0.292,0.338 1.215,0.909 1.614,1.091c1.153,0.526 2.32,1.017 3.5,1.473c0.305,0.118 0.695,0.216 0.918,-0.033c0.114,-0.127 0.145,-0.311 0.17,-0.484c0.404,-2.762 0.584,-5.56 0.539,-8.354c-0.019,-1.248 -0.112,-2.58 -0.829,-3.578z" fill="#d6e5e5"></path><path d="M32.337,16.244c-0.037,-1 -0.175,-2.054 -0.942,-2.777c-0.729,-0.686 -1.747,-0.893 -2.71,-0.989c-1.183,-0.117 -2.379,-0.16 -3.566,-0.231c-2.185,-0.13 -4.346,-0.079 -6.528,0.089c-1.353,0.111 -2.706,0.222 -4.06,0.333c-0.969,0.079 -1.957,0.146 -2.606,0.966c-0.663,0.836 -0.784,2.027 -0.813,3.056c-0.034,1.228 0.148,2.448 0.237,3.67c0.092,1.268 -0.058,2.448 -0.205,3.703c-0.129,1.098 0.021,2.145 0.726,3.023c1.445,1.8 3.871,1.78 5.966,1.629c2.431,-0.176 4.859,-0.385 7.288,-0.585c1.22,-0.1 2.441,-0.197 3.662,-0.288c0.953,-0.071 1.975,-0.12 2.601,-0.948c0.598,-0.791 0.625,-1.877 0.713,-2.823c0.122,-1.324 0.203,-2.651 0.242,-3.98c0.036,-1.281 0.042,-2.566 -0.005,-3.848zM31.366,17.675c0.019,2.216 -0.077,4.433 -0.29,6.638c-0.087,0.899 -0.113,2.094 -1.149,2.396c-0.968,0.282 -2.132,0.208 -3.135,0.287c-2.049,0.162 -4.097,0.34 -6.146,0.504c-1.049,0.084 -2.098,0.168 -3.148,0.24c-1.064,0.073 -2.163,0.128 -3.195,-0.194c-0.856,-0.268 -1.681,-0.855 -2.03,-1.706c-0.427,-1.044 -0.021,-2.231 0.082,-3.302c0.229,-2.382 -0.604,-4.805 -0.103,-7.167c0.105,-0.496 0.279,-1.072 0.721,-1.375c0.468,-0.321 1.142,-0.293 1.681,-0.337c1.312,-0.107 2.625,-0.215 3.937,-0.322c3.38,-0.26 6.808,-0.221 10.181,0.151c0.813,0.09 1.76,0.301 2.213,1.055c0.522,0.869 0.372,2.161 0.381,3.132z" fill="#010101"></path><path d="M32.38,18.452c0.81,-0.844 1.805,-1.406 2.724,-2.113c0.945,-0.727 1.629,-1.782 2.71,-2.323c-0.228,-0.06 -0.456,-0.12 -0.684,-0.179c0.842,1.248 0.772,2.84 0.769,4.284c-0.003,1.636 -0.084,3.272 -0.242,4.901c-0.039,0.397 -0.082,0.794 -0.129,1.19c-0.042,0.35 -0.006,0.945 -0.171,1.259c-0.104,0.197 -0.082,0.167 -0.3,0.137c-0.187,-0.026 -0.429,-0.161 -0.6,-0.229c-0.368,-0.145 -0.734,-0.294 -1.099,-0.446c-1.115,-0.465 -2.495,-0.913 -3.352,-1.817c-0.444,-0.468 -1.15,0.24 -0.707,0.707c1.034,1.091 2.664,1.609 4.013,2.165c0.66,0.272 1.645,0.895 2.382,0.592c0.757,-0.311 0.704,-1.329 0.791,-2.012c0.262,-2.058 0.401,-4.133 0.415,-6.208c0.011,-1.689 0.08,-3.568 -0.904,-5.029c-0.158,-0.235 -0.429,-0.307 -0.684,-0.179c-1.133,0.566 -1.826,1.64 -2.811,2.398c-0.954,0.735 -1.984,1.317 -2.825,2.194c-0.448,0.465 0.258,1.173 0.704,0.708z" fill="#010101"></path></g></g></svg>