<svg id="Icons" version="1.1" viewBox="0 0 32 32" xml:space="preserve" xmlns="http://www.w3.org/2000/svg" enable-background="new 0 0 32 32"><path d="m29.7 28.3-5.5-5.5c2.3-2.2 3.8-5.3 3.8-8.8 0-6.6-5.4-12-12-12-3.5 0-6.6 1.5-8.8 3.8L3.7 2.3c-.4-.4-1-.4-1.4 0s-.4 1 0 1.4L6 7.4l4.4 4.4 7.8 7.8 7.7 7.7 2.5 2.5c.2.2.5.3.7.3s.5-.1.7-.3c.3-.5.3-1.1-.1-1.5zm-9.8-9.8-2.8-2.8c.5-.4.9-1 .9-1.7 0-1.1-.9-2-2-2-.7 0-1.3.4-1.7.9l-2.8-2.8C12.6 8.8 14.2 8 16 8c3.3 0 6 2.7 6 6 0 1.8-.8 3.4-2.1 4.5zm2.8-8.8s-.1.1-.2.1c0 0-.1.1-.2.1s-.1 0-.2.1h-.4c-.1 0-.1 0-.2-.1-.1 0-.1-.1-.2-.1l-.1-.1c0-.1-.1-.1-.1-.1 0-.1-.1-.1-.1-.2s0-.1-.1-.2v-.4c0-.1 0-.1.1-.2 0-.1 0-.1.1-.2 0-.1.1-.1.1-.1l.1-.1c.1 0 .1-.1.2-.1s.1 0 .2-.1c.3-.1.7 0 .9.3.3.2.4.4.4.7s-.1.5-.3.7zM10 14.3l-5-5c-.6 1.5-1 3.1-1 4.8 0 3.8 1.8 7.2 4.6 9.4l-1.5 1.3c-.9.8-1.2 2.1-.8 3.3.5 1.1 1.6 1.9 2.9 1.9h13.7c.8 0 1.5-.3 2.1-.8L15.7 20a5.9 5.9 0 0 1-5.7-5.7z" fill="#bdbdbd" class="fill-000000"></path></svg>